# AST/ASF file generated using VICON BodyLanguage
# -----------------------------------------------
:version 1.10
:name VICON
:units
  mass 1.0
  length 0.45
  angle deg
:documentation
   .ast/.asf automatically generated from VICON data using
   VICON BodyBuilder and BodyLanguage model FoxedUp or BRILLIANT.MOD
:root
   order TX TY TZ RX RY RZ
   axis XYZ
   position 0 0 0  
   orientation 0 0 0 
:bonedata
  begin
     id 1 
     name lhipjoint
     direction 0.561145 -0.797705 0.220866 
     length 2.46425 
     axis 0 0 0  XYZ
  end
  begin
     id 2 
     name lfemur
     direction 0.34202 -0.939693 0  
     length 7.95556  
     axis 0 0 20  XYZ
    dof rx ry rz
    limits (-160.0 20.0)
           (-70.0 70.0)
           (-60.0 70.0)
  end
  begin
     id 3 
     name ltibia
     direction 0.34202 -0.939693 0   
     length 7.9832   
     axis 0 0 20   XYZ
    dof rx
    limits (-10.0 170.0)
  end
  begin
     id 4 
     name lfoot
     direction 0.0723927 -0.198897 0.977343   
     length 2.23085   
     axis -90 7.62852e-016 20   XYZ
    dof rx rz
    limits (-45.0 90.0)
           (-70.0 20.0)
  end
  begin
     id 5 
     name ltoes
     direction 1.53826e-011 -4.21988e-011 1   
     length 1.12127   
     axis -90 7.62852e-016 20   XYZ
    dof rx
    limits (-90.0 20.0)
  end
  begin
     id 6 
     name rhipjoint
     direction -0.610499 -0.763299 0.21134   
     length 2.57533  
     axis 0 0 0  XYZ 
  end
  begin
     id 7 
     name rfemur
     direction -0.34202 -0.939693 0   
     length 8.65257   
     axis 0 0 -20   XYZ
    dof rx ry rz
    limits (-160.0 20.0)
           (-70.0 70.0)
           (-70.0 60.0)
  end
  begin
     id 8 
     name rtibia
     direction -0.342021 -0.939692 0   
     length 7.37807   
     axis 0 0 -20   XYZ
    dof rx
    limits (-10.0 170.0)
 end
 begin
     id 9 
     name rfoot
     direction -0.0239304 -0.0543852 0.998233   
     length 1.87018  
     axis -90 -7.62852e-016 -20   XYZ
    dof rx rz
    limits (-45.0 90.0)
           (-20.0 70.0)
  end
  begin
     id 10 
     name rtoes
     direction -1.53584e-011 -4.2242e-011 1   
     length 0.951568   
     axis -90 -7.62852e-016 -20   XYZ
    dof rx
    limits (-90.0 20.0)
  end
  begin
     id 11 
     name lowerback
     direction 0.00322089 0.999033 0.0438587   
     length 2.07568   
     axis 0 0 0   XYZ
    dof rx ry rz
    limits (-20.0 45.0)
           (-30.0 30.0)
           (-30.0 30.0)
  end
  begin
     id 12 
     name upperback
     direction -0.00321932 0.999732 -0.0229403   
     length 2.06253   
     axis 0 0 0   XYZ
    dof rx ry rz
    limits (-20.0 45.0)
           (-30.0 30.0)
           (-30.0 30.0)
  end
  begin
     id 13 
     name thorax
     direction -0.00537537 0.998955 -0.0453918   
     length 2.06975   
     axis 0 0 0   XYZ
    dof rx ry rz
    limits (-20.0 45.0)
           (-30.0 30.0)
           (-30.0 30.0)
  end
  begin
     id 14 
     name lowerneck
     direction -0.00013604 0.994111 0.108363   
     length 1.50836   
     axis 0 0 0   XYZ
    dof rx ry rz
    limits (-20.0 45.0)
           (-30.0 30.0)
           (-30.0 30.0)
  end
  begin
     id 15 
     name upperneck
     direction 0.0397262 0.983859 -0.174482   
     length 1.53037   
     axis 0 0 0   XYZ
    dof rx ry rz
    limits (-20.0 45.0)
           (-30.0 30.0)
           (-30.0 30.0)
  end
  begin
     id 16
     name head
     direction 0.0109991 0.997082 -0.0755378  
     length 1.56928  
     axis 0 0 0   XYZ
    dof rx ry rz
    limits (-20.0 45.0)
           (-30.0 30.0)
           (-30.0 30.0)
  end
  begin
     id 17 
     name lclavicle
     direction 0.964749 0.254 -0.068874  
     length 3.26503  
     axis 0 0 0   XYZ
    dof ry rz
    limits (-20.0 10.0)
           (0.0 20.0)
  end
  begin
     id 18 
     name lhumerus
     direction 1 -4.48941e-011 -2.05079e-027   
     length 5.68236   
     axis 180 -30 -90   XYZ
    dof rx ry rz
    limits (-60.0 90.0)
           (-90.0 90.0)
           (-90.0 90.0)
  end
  begin
     id 19
     name lradius
     direction 1 -4.48956e-011 6.2882e-027   
     length 3.17112   
     axis 180 -30 -90   XYZ
    dof rx
    limits (-10.0 170.0)
  end
  begin
     id 20
     name lwrist
     direction 1 -4.49014e-011 1.73219e-026   
     length 1.58556   
     axis -1.04724e-014 90 90   XYZ
    dof ry
    limits (-180.0 0.0)
 end
  begin
     id 21 
     name lhand
     direction 1 -4.49312e-011 3.46438e-026   
     length 0.632691   
     axis -2.21057e-014 90 90   XYZ
    dof rx rz
    limits (-90.0 90.0)
           (-45.0 45.0)
  end
  begin
     id 22 
     name lfingers
     direction 1 -4.48894e-011 6.92876e-026   
     length 0.510091   
     axis -4.42114e-014 90 90   XYZ
    dof rx
    limits (0.0 90.0)
  end
  begin
     id 23
     name lthumb
     direction 0.707107 -6.34705e-011 0.707107   
     length 0.732392   
     axis -90 45 2.85299e-015   XYZ
    dof rx rz
    limits (-45.0 45.0)
           (-45.0 45.0)
  end
  begin
     id 24 
     name rclavicle
     direction -0.954374 0.280496 -0.102435   
     length 3.25419  
     axis 0 0 0   XYZ 
    dof ry rz
    limits (-10.0 20.0)
           (-20.0 0.0)
  end
  begin
     id 25 
     name rhumerus
     direction -1 -4.48994e-011 -1.07204e-017  
     length 5.8712   
     axis 180 30 90   XYZ
    dof rx ry rz
    limits (-90.0 60.0)
           (-90.0 90.0)
           (-90.0 90.0)
  end
  begin
     id 26 
     name rradius
     direction -1 -4.48972e-011 5.89292e-027   
     length 3.37589   
     axis 180 30 90   XYZ
    dof rx
    limits (-10.0 170.0)
  end
  begin
     id 27 
     name rwrist
     direction -1 -4.48942e-011 1.73219e-026   
     length 1.68794   
     axis -1.04724e-014 -90 -90   XYZ
    dof ry
    limits (-180.0 0.0)
  end
  begin
     id 28
     name rhand
     direction -1 -4.48514e-011 3.46438e-026   
     length 0.603257   
     axis -2.21057e-014 -90 -90   XYZ
    dof rx rz
    limits (-90.0 90.0)
           (-45.0 45.0)
  end
  begin
     id 29
     name rfingers
     direction -1 -4.50028e-011 6.92876e-026   
     length 0.486362   
     axis -4.42114e-014 -90 -90   XYZ
    dof rx
    limits (0.0 90.0)
  end
  begin
     id 30
     name rthumb
     direction -0.707107 -6.34926e-011 0.707107   
     length 0.698321   
     axis -90 -45 -2.85299e-015   XYZ
    dof rx rz
    limits (-45.0 45.0)
           (-45.0 45.0)
  end
:hierarchy
  begin
    root lhipjoint rhipjoint lowerback
    lhipjoint lfemur
    lfemur ltibia
    ltibia lfoot
    lfoot ltoes
    rhipjoint rfemur
    rfemur rtibia
    rtibia rfoot
    rfoot rtoes
    lowerback upperback
    upperback thorax
    thorax lowerneck lclavicle rclavicle
    lowerneck upperneck
    upperneck head
    lclavicle lhumerus
    lhumerus lradius
    lradius lwrist
    lwrist lhand lthumb
    lhand lfingers
    rclavicle rhumerus
    rhumerus rradius
    rradius rwrist
    rwrist rhand rthumb
    rhand rfingers
  end

#!OML:ASF I:\Segmentation\Patient Classification 1\Patient 1\Session 1\Patient1.ASF
:FULLY-SPECIFIED
:DEGREES
2290
root -12.8382 18.0053 0.843543 -158.409 -257.208 -1249.82
lowerback -12.5519 -3.68204 -2.30553
upperback 1.68339 -4.82498 3.16775
thorax 9.34795 -2.53983 3.70761
lowerneck -13.9646 6.07844 0.622637
upperneck 23.0351 10.1305 -5.66895
head 9.97043 4.22632 -0.76069
rclavicle 3.18055e-015 3.26007e-014
rhumerus -57.443 3.20686 -88.7958
rradius 111.136
rwrist -91.1282
rhand -10.2047 -8.16645
rfingers 7.12502
rthumb 15.7865 -37.5427
lclavicle 3.18055e-015 3.26007e-014
lhumerus 19.0869 -14.1359 57.088
lradius 83.1235
lwrist 2.75637
lhand -17.5378 37.482
lfingers 7.12502
lthumb 8.71637 67.282
rfemur -33.2968 9.44128 10.378
rtibia 40.8149
rfoot -3.60527 11.3727
rtoes 34.1987
lfemur -22.887 3.35554 -23.2915
ltibia 37.8159
lfoot -31.0167 10.2745
ltoes -12.0949
2291
root -12.8691 18.002 0.833017 -157.267 -257.891 -1248.61
lowerback -12.0461 -4.20293 -2.48191
upperback 1.57236 -5.51197 3.33533
thorax 9.03449 -2.8834 3.8706
lowerneck -14.2226 6.48313 0.488288
upperneck 23.6206 10.802 -5.63556
head 10.247 4.50486 -0.620429
rclavicle -1.82882e-014 1.43125e-014
rhumerus -58.4078 2.45658 -88.0044
rradius 111.735
rwrist -92.3322
rhand -10.7101 -9.57177
rfingers 7.12502
rthumb 15.2997 -38.9859
lclavicle -1.82882e-014 1.43125e-014
lhumerus 23.5846 -12.706 55.3269
lradius 75.1396
lwrist 2.2421
lhand -16.4405 37.7154
lfingers 7.12502
lthumb 9.77519 67.4685
rfemur -33.2141 8.86623 10.3536
rtibia 40.9617
rfoot -3.90856 11.4453
rtoes 33.828
lfemur -23.1328 2.96277 -23.325
ltibia 38.0161
lfoot -30.6083 10.0497
ltoes -12.1601
2292
root -12.9 18 0.822586 -156.345 -258.473 -1247.79
lowerback -11.7141 -4.60703 -2.44468
upperback 1.43296 -6.05946 3.35304
thorax 8.74255 -3.14361 3.7789
lowerneck -14.4351 6.85657 0.739682
upperneck 24.1863 11.3519 -5.67356
head 10.5322 4.75119 -0.581685
rclavicle -4.01545e-014 5.32743e-014
rhumerus -59.2314 1.56325 -87.4414
rradius 112.159
rwrist -93.5499
rhand -11.318 -10.5299
rfingers 7.12502
rthumb 14.7141 -39.9877
lclavicle -4.01545e-014 5.32743e-014
lhumerus 28.1583 -11.3397 53.7329
lradius 66.2238
lwrist 1.16142
lhand -15.4594 37.164
lfingers 7.12502
lthumb 10.7216 66.8704
rfemur -33.3315 8.33599 10.3625
rtibia 41.0816
rfoot -4.1037 11.5106
rtoes 33.6166
lfemur -23.5624 2.71538 -23.3174
ltibia 38.2347
lfoot -30.173 9.9473
ltoes -12.1527
2293
root -12.934 17.9974 0.812795 -155.644 -258.957 -1247.38
lowerback -11.5467 -5.19867 -2.53813
upperback 1.25053 -6.85747 3.65445
thorax 8.57728 -3.54011 4.00624
lowerneck -14.5148 7.35318 0.632181
upperneck 24.5309 12.1956 -5.88651
head 10.7183 5.09038 -0.509905
rclavicle -5.40694e-014 1.27222e-014
rhumerus -59.7599 1.55076 -86.8474
rradius 112.444
rwrist -94.5376
rhand -11.533 -9.9814
rfingers 7.12502
rthumb 14.507 -39.4542
lclavicle -5.40694e-014 1.27222e-014
lhumerus 32.226 -9.05431 53.1657
lradius 56.6454
lwrist -0.791513
lhand -15.3534 36.5259
lfingers 7.12502
lthumb 10.8239 66.227
rfemur -33.7253 7.85928 10.3969
rtibia 41.1891
rfoot -4.22216 11.4212
rtoes 33.4689
lfemur -24.2193 2.68781 -23.2811
ltibia 38.4448
lfoot -29.6984 9.93589
ltoes -12.6804
2294
root -12.9632 17.9935 0.808463 -154.696 -259.706 -1246.67
lowerback -11.4479 -5.83545 -2.64049
upperback 1.25076 -7.71763 3.91412
thorax 8.66288 -3.9714 4.16774
lowerneck -15.1325 7.81221 0.610543
upperneck 24.9294 12.9552 -6.03466
head 11.0293 5.37928 -0.41401
rclavicle 1.51871e-013 7.95139e-016
rhumerus -59.8692 1.3878 -86.4209
rradius 112.648
rwrist -95.1433
rhand -11.2111 -9.32424
rfingers 7.12502
rthumb 14.8171 -38.7745
lclavicle 1.51871e-013 7.95139e-016
lhumerus 36.4482 -6.55376 52.7841
lradius 46.7068
lwrist -3.33448
lhand -16.0313 35.7262
lfingers 7.12502
lthumb 10.17 65.4604
rfemur -33.9632 7.42753 10.4741
rtibia 41.29
rfoot -4.61192 11.2114
rtoes 33.2987
lfemur -24.8036 2.6564 -23.1728
ltibia 38.6475
lfoot -29.1765 9.5567
ltoes -13.1724
